<?xml version="1.0" encoding="UTF-8" standalone="no"?>
<svg
   xmlns:dc="http://purl.org/dc/elements/1.1/"
   xmlns:cc="http://creativecommons.org/ns#"
   xmlns:rdf="http://www.w3.org/1999/02/22-rdf-syntax-ns#"
   xmlns:svg="http://www.w3.org/2000/svg"
   xmlns="http://www.w3.org/2000/svg"
   xmlns:sodipodi="http://sodipodi.sourceforge.net/DTD/sodipodi-0.dtd"
   xmlns:inkscape="http://www.inkscape.org/namespaces/inkscape"
   fill="none"
   height="22"
   viewBox="0 0 18 22"
   width="18"
   version="1.1"
   id="svg70"
   sodipodi:docname="robot-top-bar.svg"
   inkscape:version="1.0.2 (e86c870879, 2021-01-15)">
  <metadata
     id="metadata76">
    <rdf:RDF>
      <cc:Work
         rdf:about="">
        <dc:format>image/svg+xml</dc:format>
        <dc:type
           rdf:resource="http://purl.org/dc/dcmitype/StillImage" />
        <dc:title></dc:title>
      </cc:Work>
    </rdf:RDF>
  </metadata>
  <defs
     id="defs74" />
  <sodipodi:namedview
     pagecolor="#ffffff"
     bordercolor="#666666"
     borderopacity="1"
     objecttolerance="10"
     gridtolerance="10"
     guidetolerance="10"
     inkscape:pageopacity="0"
     inkscape:pageshadow="2"
     inkscape:window-width="1920"
     inkscape:window-height="1056"
     id="namedview72"
     showgrid="false"
     inkscape:zoom="38.772727"
     inkscape:cx="3.9706917"
     inkscape:cy="11"
     inkscape:window-x="0"
     inkscape:window-y="0"
     inkscape:window-maximized="0"
     inkscape:current-layer="svg70" />
  <path
     d="m16.9688.5h-15.93755c-.414844 0-.75.335156-.75.75v15.4688c0 .4148.335156.75.75.75h15.93755c.4148 0 .75-.3352.75-.75v-15.4688c0-.414844-.3352-.75-.75-.75zm-12.93755 6.1875c0-.77578.63047-1.40625 1.40625-1.40625s1.40625.63047 1.40625 1.40625-.63047 1.40625-1.40625 1.40625-1.40625-.63047-1.40625-1.40625zm8.71875 5.8125c0 .1031-.0844.1875-.1875.1875h-7.125c-.10313 0-.1875-.0844-.1875-.1875v-1.4062c0-.1032.08437-.1876.1875-.1876h7.125c.1031 0 .1875.0844.1875.1876zm-.1875-4.40625c-.7758 0-1.4063-.63047-1.4063-1.40625s.6305-1.40625 1.4063-1.40625 1.4063.63047 1.4063 1.40625-.6305 1.40625-1.4063 1.40625zm3.1641 11.15625h-13.45316c-.32344 0-.58594.3352-.58594.75v1.3125c0 .1031.06562.1875.14531.1875h14.33199c.0797 0 .1454-.0844.1454-.1875v-1.3125c.0023-.4148-.2602-.75-.5836-.75z"
     fill="#b80812"
     id="path68" />
  <path
     style="fill:#2186ba;fill-opacity:1;stroke-width:0.0257913"
     d="M 0.83546703,17.425626 C 0.62026621,17.367406 0.40761796,17.166197 0.33718817,16.954153 0.29856982,16.837884 0.29564249,16.176295 0.30171019,8.9359884 l 0.006613,-7.8914397 0.0761863,-0.13753794 C 0.46773009,0.7567746 0.55483599,0.67279802 0.71798084,0.58551986 L 0.82415006,0.52872216 H 9 17.17585 l 0.137538,0.0761863 c 0.150236,0.0832202 0.234213,0.17032613 0.321491,0.33347099 l 0.0568,0.10616925 0.0066,7.8971852 c 0.0066,7.8913861 0.0066,7.8972881 -0.04595,8.0376821 -0.05891,0.157441 -0.244476,0.351565 -0.406105,0.424824 -0.08957,0.0406 -0.652391,0.04392 -8.1946474,0.0484 -6.3543182,0.0038 -8.12381182,-0.002 -8.21611557,-0.02702 z M 12.701055,12.637749 c 0.04935,-0.04935 0.05158,-0.08597 0.05158,-0.847116 0,-0.776005 -0.0013,-0.79674 -0.05429,-0.844666 C 12.645499,10.898139 12.54728,10.896835 9,10.896835 c -3.54728,0 -3.6454988,0.0013 -3.6983473,0.04913 -0.052958,0.04793 -0.05429,0.06866 -0.05429,0.844666 0,0.761145 0.00223,0.797763 0.051583,0.847116 0.051096,0.0511 0.085971,0.05158 3.7010551,0.05158 3.6150842,0 3.6499592,-4.85e-4 3.7010552,-0.05158 z M 5.798153,8.0576176 C 6.2942399,7.9297117 6.7196716,7.4886736 6.8218803,6.9963361 6.8693193,6.7678247 6.8410871,6.3938445 6.7604962,6.1832029 6.3942635,5.2259762 5.1534635,4.9625023 4.4343085,5.6892557 4.1551453,5.9713684 4.0255496,6.2957287 4.0279237,6.7063794 c 0.00238,0.4119282 0.1458661,0.7363911 0.4502817,1.018226 0.1686716,0.1561603 0.3846943,0.2773455 0.5956976,0.3341767 0.1825822,0.049176 0.5311756,0.048616 0.72425,-0.00116 z m 7.116888,0.00245 c 0.220755,-0.0575 0.433662,-0.1752121 0.606754,-0.335465 0.304415,-0.2818349 0.4479,-0.6062978 0.450281,-1.018226 0.0024,-0.4127037 -0.130678,-0.7443299 -0.40928,-1.0200193 -0.276888,-0.2739928 -0.606881,-0.4085299 -1.003593,-0.4091621 -0.594888,-9.491e-4 -1.10729,0.3508278 -1.319699,0.9060049 -0.08059,0.2106416 -0.108823,0.5846218 -0.06138,0.8131332 0.101649,0.4896434 0.520575,0.9249914 1.022791,1.062885 0.171687,0.04714 0.53475,0.047572 0.71413,8.485e-4 z"
     id="path901" />
  <path
     style="fill:#2186ba;fill-opacity:1;stroke-width:0.0257913"
     d="m 1.7554931,21.444657 c -0.06533,-0.06533 -0.073294,-0.185449 -0.061023,-0.920401 0.013122,-0.785945 0.025993,-0.85657 0.1912952,-1.049688 0.050403,-0.05888 0.136356,-0.129874 0.1910076,-0.157755 0.098044,-0.05002 0.19018,-0.05069 6.9232271,-0.05069 6.733047,0 6.825183,6.74e-4 6.923227,0.05069 0.05465,0.02788 0.140605,0.09887 0.191008,0.157755 0.163004,0.190434 0.171814,0.248546 0.171814,1.133298 0,0.733494 -0.0034,0.794039 -0.04716,0.833623 -0.04365,0.0395 -0.583569,0.04268 -7.2455204,0.04268 -6.4312731,0 -7.2025654,-0.0042 -7.2378705,-0.03952 z"
     id="path903" />
  <path
     style="fill:#2186ba;fill-opacity:1;stroke-width:0.0257913"
     d="m 4.1426983,21.458717 c -2.3177082,-0.01302 -2.3561597,-0.01406 -2.3939187,-0.06481 -0.03256,-0.04377 -0.036748,-0.16884 -0.027635,-0.825323 0.00785,-0.565498 0.020289,-0.801505 0.046222,-0.876905 0.01964,-0.0571 0.094438,-0.162565 0.1675295,-0.236208 0.1191969,-0.120096 0.1468739,-0.135082 0.284391,-0.153988 0.1990577,-0.02737 13.3623699,-0.02737 13.5614279,0 0.13731,0.01888 0.165481,0.03408 0.285494,0.154095 0.09965,0.09965 0.141044,0.1645 0.164525,0.257751 0.04156,0.165038 0.04471,1.6628 0.0036,1.703956 -0.05132,0.05136 -6.4314321,0.07323 -12.091625,0.04143 z"
     id="path905" />
</svg>
