<?xml version="1.0" encoding="UTF-8" standalone="no"?>
<svg
   fill="none"
   height="22"
   viewBox="0 0 18 22"
   width="18"
   version="1.1"
   id="svg70"
   sodipodi:docname="dam-top-bar.svg"
   inkscape:version="1.1 (c4e8f9ed74, 2021-05-24)"
   xmlns:inkscape="http://www.inkscape.org/namespaces/inkscape"
   xmlns:sodipodi="http://sodipodi.sourceforge.net/DTD/sodipodi-0.dtd"
   xmlns="http://www.w3.org/2000/svg"
   xmlns:svg="http://www.w3.org/2000/svg"
   xmlns:rdf="http://www.w3.org/1999/02/22-rdf-syntax-ns#"
   xmlns:cc="http://creativecommons.org/ns#"
   xmlns:dc="http://purl.org/dc/elements/1.1/">
  <metadata
     id="metadata76">
    <rdf:RDF>
      <cc:Work
         rdf:about="">
        <dc:format>image/svg+xml</dc:format>
        <dc:type
           rdf:resource="http://purl.org/dc/dcmitype/StillImage" />
      </cc:Work>
    </rdf:RDF>
  </metadata>
  <defs
     id="defs74" />
  <sodipodi:namedview
     pagecolor="#ffffff"
     bordercolor="#666666"
     borderopacity="1"
     objecttolerance="10"
     gridtolerance="10"
     guidetolerance="10"
     inkscape:pageopacity="0"
     inkscape:pageshadow="2"
     inkscape:window-width="1920"
     inkscape:window-height="1034"
     id="namedview72"
     showgrid="false"
     inkscape:zoom="32"
     inkscape:cx="10.0625"
     inkscape:cy="9.328125"
     inkscape:window-x="0"
     inkscape:window-y="22"
     inkscape:window-maximized="1"
     inkscape:current-layer="g2466"
     inkscape:pagecheckerboard="0" />
  <g
     id="g2466"
     transform="matrix(0.02973294,0,0,0.02973294,-11.456436,-5.759565)"
     style="display:inline">
    <path
       style="font-variation-settings:normal;opacity:1;vector-effect:none;fill:#2186ba;fill-opacity:1;stroke-width:0.000100747;stroke-linecap:butt;stroke-linejoin:miter;stroke-miterlimit:4;stroke-dasharray:none;stroke-dashoffset:0;stroke-opacity:1;-inkscape-stroke:none;stop-color:#000000;stop-opacity:1"
       d=""
       id="path6363"
       transform="matrix(33.632732,0,0,33.632732,385.31124,193.70991)" />
    <path
       style="font-variation-settings:normal;opacity:1;vector-effect:none;fill:#2186ba;fill-opacity:1;stroke-width:0.000100747;stroke-linecap:butt;stroke-linejoin:miter;stroke-miterlimit:4;stroke-dasharray:none;stroke-dashoffset:0;stroke-opacity:1;-inkscape-stroke:none;stop-color:#000000;stop-opacity:1"
       d=""
       id="path6402"
       transform="matrix(33.632732,0,0,33.632732,385.31124,193.70991)" />
    <path
       style="font-variation-settings:normal;opacity:1;vector-effect:none;fill:#2186ba;fill-opacity:1;stroke-width:0.000100747;stroke-linecap:butt;stroke-linejoin:miter;stroke-miterlimit:4;stroke-dasharray:none;stroke-dashoffset:0;stroke-opacity:1;-inkscape-stroke:none;stop-color:#000000;stop-opacity:1"
       d=""
       id="path6480"
       transform="matrix(33.632732,0,0,33.632732,385.31124,193.70991)" />
    <path
       style="font-variation-settings:normal;opacity:1;vector-effect:none;fill:#2186ba;fill-opacity:1;stroke-width:0.000100747;stroke-linecap:butt;stroke-linejoin:miter;stroke-miterlimit:4;stroke-dasharray:none;stroke-dashoffset:0;stroke-opacity:1;-inkscape-stroke:none;stop-color:#000000;stop-opacity:1"
       d=""
       id="path6519"
       transform="matrix(33.632732,0,0,33.632732,385.31124,193.70991)" />
    <path
       style="font-variation-settings:normal;opacity:1;vector-effect:none;fill:#2186ba;fill-opacity:1;stroke-width:0.000100747;stroke-linecap:butt;stroke-linejoin:miter;stroke-miterlimit:4;stroke-dasharray:none;stroke-dashoffset:0;stroke-opacity:1;-inkscape-stroke:none;stop-color:#000000;stop-opacity:1"
       d=""
       id="path6558"
       transform="matrix(33.632732,0,0,33.632732,385.31124,193.70991)" />
    <path
       style="font-variation-settings:normal;opacity:1;vector-effect:none;fill:#2186ba;fill-opacity:1;stroke-width:0.000100747;stroke-linecap:butt;stroke-linejoin:miter;stroke-miterlimit:4;stroke-dasharray:none;stroke-dashoffset:0;stroke-opacity:1;-inkscape-stroke:none;stop-color:#000000;stop-opacity:1"
       d=""
       id="path6597"
       transform="matrix(33.632732,0,0,33.632732,385.31124,193.70991)" />
    <path
       style="font-variation-settings:normal;opacity:1;vector-effect:none;fill:#2186ba;fill-opacity:1;stroke-width:0.000100747;stroke-linecap:butt;stroke-linejoin:miter;stroke-miterlimit:4;stroke-dasharray:none;stroke-dashoffset:0;stroke-opacity:1;-inkscape-stroke:none;stop-color:#000000;stop-opacity:1"
       d=""
       id="path7022"
       transform="matrix(33.632732,0,0,33.632732,385.31124,193.70991)" />
    <path
       style="font-variation-settings:normal;opacity:1;vector-effect:none;fill:#2186ba;fill-opacity:1;stroke-width:0.000100747;stroke-linecap:butt;stroke-linejoin:miter;stroke-miterlimit:4;stroke-dasharray:none;stroke-dashoffset:0;stroke-opacity:1;-inkscape-stroke:none;stop-color:#000000;stop-opacity:1"
       d=""
       id="path7061"
       transform="matrix(33.632732,0,0,33.632732,385.31124,193.70991)" />
    <path
       style="font-variation-settings:normal;opacity:1;vector-effect:none;fill:#2186ba;fill-opacity:1;stroke-width:0.000100747;stroke-linecap:butt;stroke-linejoin:miter;stroke-miterlimit:4;stroke-dasharray:none;stroke-dashoffset:0;stroke-opacity:1;-inkscape-stroke:none;stop-color:#000000;stop-opacity:1"
       d=""
       id="path7178"
       transform="matrix(33.632732,0,0,33.632732,385.31124,193.70991)" />
    <path
       style="font-variation-settings:normal;opacity:1;vector-effect:none;fill:#2186ba;fill-opacity:1;stroke-width:0.000100747;stroke-linecap:butt;stroke-linejoin:miter;stroke-miterlimit:4;stroke-dasharray:none;stroke-dashoffset:0;stroke-opacity:1;-inkscape-stroke:none;stop-color:#000000;stop-opacity:1"
       d=""
       id="path7217"
       transform="matrix(33.632732,0,0,33.632732,385.31124,193.70991)" />
    <path
       style="font-variation-settings:normal;opacity:1;vector-effect:none;fill:#2186ba;fill-opacity:1;stroke-width:0.000100747;stroke-linecap:butt;stroke-linejoin:miter;stroke-miterlimit:4;stroke-dasharray:none;stroke-dashoffset:0;stroke-opacity:1;-inkscape-stroke:none;stop-color:#000000;stop-opacity:1"
       d=""
       id="path7256"
       transform="matrix(33.632732,0,0,33.632732,385.31124,193.70991)" />
    <path
       style="font-variation-settings:normal;opacity:1;vector-effect:none;fill:#2186ba;fill-opacity:1;stroke-width:0.000100747;stroke-linecap:butt;stroke-linejoin:miter;stroke-miterlimit:4;stroke-dasharray:none;stroke-dashoffset:0;stroke-opacity:1;-inkscape-stroke:none;stop-color:#000000;stop-opacity:1"
       d=""
       id="path7295"
       transform="matrix(33.632732,0,0,33.632732,385.31124,193.70991)" />
    <path
       style="font-variation-settings:normal;opacity:1;vector-effect:none;fill:#2186ba;fill-opacity:1;stroke-width:0.000100747;stroke-linecap:butt;stroke-linejoin:miter;stroke-miterlimit:4;stroke-dasharray:none;stroke-dashoffset:0;stroke-opacity:1;-inkscape-stroke:none;stop-color:#000000;stop-opacity:1"
       d=""
       id="path7412"
       transform="matrix(33.632732,0,0,33.632732,385.31124,193.70991)" />
    <path
       style="font-variation-settings:normal;opacity:1;vector-effect:none;fill:#2186ba;fill-opacity:1;stroke-width:0.000100747;stroke-linecap:butt;stroke-linejoin:miter;stroke-miterlimit:4;stroke-dasharray:none;stroke-dashoffset:0;stroke-opacity:1;-inkscape-stroke:none;stop-color:#000000;stop-opacity:1"
       d=""
       id="path7488"
       transform="matrix(33.632732,0,0,33.632732,385.31124,193.70991)" />
    <path
       style="font-variation-settings:normal;opacity:1;vector-effect:none;fill:#2186ba;fill-opacity:1;stroke-width:0.000100747;stroke-linecap:butt;stroke-linejoin:miter;stroke-miterlimit:4;stroke-dasharray:none;stroke-dashoffset:0;stroke-opacity:1;-inkscape-stroke:none;stop-color:#000000;stop-opacity:1"
       d=""
       id="path7527"
       transform="matrix(33.632732,0,0,33.632732,385.31124,193.70991)" />
    <path
       style="font-variation-settings:normal;opacity:1;vector-effect:none;fill:#2186ba;fill-opacity:1;stroke-width:0.000100747;stroke-linecap:butt;stroke-linejoin:miter;stroke-miterlimit:4;stroke-dasharray:none;stroke-dashoffset:0;stroke-opacity:1;-inkscape-stroke:none;stop-color:#000000;stop-opacity:1"
       d=""
       id="path7566"
       transform="matrix(33.632732,0,0,33.632732,385.31124,193.70991)" />
    <path
       style="font-variation-settings:normal;opacity:1;vector-effect:none;fill:#2186ba;fill-opacity:1;stroke-width:0.000100747;stroke-linecap:butt;stroke-linejoin:miter;stroke-miterlimit:4;stroke-dasharray:none;stroke-dashoffset:0;stroke-opacity:1;-inkscape-stroke:none;stop-color:#000000;stop-opacity:1"
       d=""
       id="path7605"
       transform="matrix(33.632732,0,0,33.632732,385.31124,193.70991)" />
    <path
       style="font-variation-settings:normal;opacity:1;vector-effect:none;fill:#2186ba;fill-opacity:1;stroke-width:0.000100747;stroke-linecap:butt;stroke-linejoin:miter;stroke-miterlimit:4;stroke-dasharray:none;stroke-dashoffset:0;stroke-opacity:1;-inkscape-stroke:none;stop-color:#000000;stop-opacity:1"
       d=""
       id="path7644"
       transform="matrix(33.632732,0,0,33.632732,385.31124,193.70991)" />
    <g
       id="g10"
       transform="matrix(1.3891164,0,0,-1.3891164,551.70508,378.631)">
      <path
         d="M 0,0 -116.685,-54.959 -76.077,-60.147 0,-290 Z"
         style="fill:#03466e;fill-opacity:1;fill-rule:nonzero;stroke:none"
         id="path12" />
    </g>
    <g
       id="g14"
       transform="matrix(1.3891164,0,0,-1.3891164,770.05333,378.631)">
      <path
         d="M 0,0 -116.686,-54.959 -76.077,-60.147 0,-290 Z"
         style="fill:#03466e;fill-opacity:1;fill-rule:nonzero;stroke:none"
         id="path16" />
    </g>
    <g
       id="g18"
       transform="matrix(1.3891164,0,0,-1.3891164,988.4003,378.631)">
      <path
         d="M 0,0 -116.685,-54.959 -76.077,-60.147 0,-290 Z"
         style="fill:#03466e;fill-opacity:1;fill-rule:nonzero;stroke:none"
         id="path20" />
    </g>
    <path
       style="font-variation-settings:normal;opacity:1;vector-effect:none;fill:#2186ba;fill-opacity:1;stroke-width:0.0033884;stroke-linecap:butt;stroke-linejoin:miter;stroke-miterlimit:4;stroke-dasharray:none;stroke-dashoffset:0;stroke-opacity:1;-inkscape-stroke:none;stop-color:#000000;stop-opacity:1"
       d="m 529.92239,715.40643 c -11.91313,-36.00246 -21.68549,-65.53294 -21.71636,-65.62324 -0.0447,-0.13117 4.35295,-0.1648 21.70097,-0.1648 h 21.75709 v 65.62324 c 0,36.09277 -0.0183,65.62325 -0.0407,65.62325 -0.0224,0 -9.78784,-29.45656 -21.70097,-65.45902 z"
       id="path16801" />
    <path
       style="font-variation-settings:normal;opacity:1;vector-effect:none;fill:#2186ba;fill-opacity:1;stroke-width:0.0033884;stroke-linecap:butt;stroke-linejoin:miter;stroke-miterlimit:4;stroke-dasharray:none;stroke-dashoffset:0;stroke-opacity:1;-inkscape-stroke:none;stop-color:#000000;stop-opacity:1"
       d="m 503.05513,634.24776 c -6.27967,-18.96244 -39.78234,-120.1881 -39.88399,-120.50635 -0.07,-0.21862 2.09492,-0.23005 44.20976,-0.23005 h 44.28319 v 68.05294 68.05298 l -21.7484,0.0336 -21.74841,0.0336 z"
       id="path16840" />
    <path
       style="font-variation-settings:normal;opacity:1;vector-effect:none;fill:#2186ba;fill-opacity:1;stroke-width:0.0033884;stroke-linecap:butt;stroke-linejoin:miter;stroke-miterlimit:4;stroke-dasharray:none;stroke-dashoffset:0;stroke-opacity:1;-inkscape-stroke:none;stop-color:#000000;stop-opacity:1"
       d="m 458.37512,499.257 c -2.60654,-7.8761 -6.43,-19.43407 -8.49659,-25.68437 -2.06658,-6.25031 -3.7723,-11.38462 -3.79049,-11.40959 -0.0182,-0.025 -12.59539,-1.65077 -27.94933,-3.61289 -15.35395,-1.96212 -27.94768,-3.59894 -27.98607,-3.63738 -0.0384,-0.0384 36.27119,-17.1865 80.68798,-38.10681 l 80.75778,-38.03692 0.033,67.32731 c 0.0181,37.03002 0.0137,67.34655 -0.01,67.37008 -0.0235,0.0235 -19.9473,0.0582 -44.27504,0.0767 l -44.23227,0.0341 -4.73916,-14.32018 z"
       id="path16879" />
    <path
       style="font-variation-settings:normal;opacity:1;vector-effect:none;fill:#2186ba;fill-opacity:1;stroke-width:0.0033884;stroke-linecap:butt;stroke-linejoin:miter;stroke-miterlimit:4;stroke-dasharray:none;stroke-dashoffset:0;stroke-opacity:1;-inkscape-stroke:none;stop-color:#000000;stop-opacity:1"
       d="m 677.52002,501.65464 c -3.18852,-9.62835 -7.42949,-22.44262 -9.42436,-28.47615 -1.99487,-6.03353 -3.64139,-10.99051 -3.65892,-11.01551 -0.0175,-0.025 -12.59422,-1.6508 -27.94818,-3.61289 -15.35396,-1.96209 -27.94784,-3.59906 -27.9864,-3.63771 -0.0386,-0.0387 35.38426,-16.7674 78.7174,-37.17499 43.33313,-20.40758 79.68911,-37.53295 80.79102,-38.05637 l 2.0035,-0.95167 v 70.21569 70.21569 h -43.34836 -43.34837 z"
       id="path16918" />
    <path
       style="font-variation-settings:normal;opacity:1;vector-effect:none;fill:#2186ba;fill-opacity:1;stroke-width:0.0033884;stroke-linecap:butt;stroke-linejoin:miter;stroke-miterlimit:4;stroke-dasharray:none;stroke-dashoffset:0;stroke-opacity:1;-inkscape-stroke:none;stop-color:#000000;stop-opacity:1"
       d="m 729.34945,658.25706 c -0.0334,-0.0903 -10.37917,-31.35005 -22.99071,-69.46606 -12.61154,-38.116 -22.95611,-69.37571 -22.98793,-69.46604 -0.0461,-0.13116 8.66899,-0.16412 43.29273,-0.16412 h 43.35057 v 69.63026 69.63029 h -20.30203 c -16.12168,0 -20.31447,-0.0336 -20.36263,-0.1648 z"
       id="path16957" />
    <path
       style="font-variation-settings:normal;opacity:1;vector-effect:none;fill:#2186ba;fill-opacity:1;stroke-width:0.0033884;stroke-linecap:butt;stroke-linejoin:miter;stroke-miterlimit:4;stroke-dasharray:none;stroke-dashoffset:0;stroke-opacity:1;-inkscape-stroke:none;stop-color:#000000;stop-opacity:1"
       d="m 749.72016,719.80758 c -11.11572,-33.58181 -20.23399,-61.14653 -20.26285,-61.25492 -0.0471,-0.1749 2.25675,-0.19171 20.25218,-0.16481 l 20.30462,0.0336 v 61.22126 c 0,33.67167 -0.0188,61.22125 -0.0404,61.22125 -0.023,0 -9.13646,-27.47605 -20.25218,-61.05787 z"
       id="path16996" />
    <path
       style="font-variation-settings:normal;opacity:1;vector-effect:none;fill:#2186ba;fill-opacity:1;stroke-width:0.0033884;stroke-linecap:butt;stroke-linejoin:miter;stroke-miterlimit:4;stroke-dasharray:none;stroke-dashoffset:0;stroke-opacity:1;-inkscape-stroke:none;stop-color:#000000;stop-opacity:1"
       d="m 968.52862,721.18706 c -10.86243,-32.82312 -19.77662,-59.75232 -19.80931,-59.84262 -0.0471,-0.13117 3.96688,-0.1648 19.79266,-0.1648 h 19.85213 v 59.84262 c 0,32.91343 -0.0193,59.84262 -0.0437,59.84262 -0.0235,0 -8.93023,-26.8553 -19.79266,-59.67839 z"
       id="path17035" />
    <path
       style="font-variation-settings:normal;opacity:1;vector-effect:none;fill:#2186ba;fill-opacity:1;stroke-width:0.0033884;stroke-linecap:butt;stroke-linejoin:miter;stroke-miterlimit:4;stroke-dasharray:none;stroke-dashoffset:0;stroke-opacity:1;-inkscape-stroke:none;stop-color:#000000;stop-opacity:1"
       d="m 946.6588,655.13681 c -1.11122,-3.35991 -11.27796,-34.08035 -22.59265,-68.26748 -11.31469,-34.18711 -20.57213,-62.19523 -20.57213,-62.24025 0,-0.0451 19.09575,-0.0817 42.43502,-0.0817 h 42.43506 v 68.31564 68.31568 l -19.84241,0.0336 -19.8424,0.0336 z"
       id="path17074" />
    <path
       style="font-variation-settings:normal;opacity:1;vector-effect:none;fill:#2186ba;fill-opacity:1;stroke-width:0.0033884;stroke-linecap:butt;stroke-linejoin:miter;stroke-miterlimit:4;stroke-dasharray:none;stroke-dashoffset:0;stroke-opacity:1;-inkscape-stroke:none;stop-color:#000000;stop-opacity:1"
       d="m 893.12427,493.37622 c -5.66725,-17.14228 -10.31859,-31.18806 -10.33635,-31.21285 -0.0177,-0.0248 -12.59478,-1.65059 -27.94896,-3.61289 -15.35419,-1.9623 -27.9484,-3.59961 -27.98715,-3.63845 -0.0403,-0.0387 27.25671,-12.94179 60.65657,-28.67322 l 60.72699,-28.60259 h 20.06438 20.06435 v 63.45551 63.45551 l -42.46789,-0.002 -42.46791,-0.002 z"
       id="path17113" />
    <path
       style="font-variation-settings:normal;opacity:1;vector-effect:none;fill:#2186ba;fill-opacity:1;stroke-width:0.0033884;stroke-linecap:butt;stroke-linejoin:miter;stroke-miterlimit:4;stroke-dasharray:none;stroke-dashoffset:0;stroke-opacity:1;-inkscape-stroke:none;stop-color:#000000;stop-opacity:1"
       d="m 948.70203,397.43954 c 0.18834,-0.10224 9.08595,-4.30347 19.77238,-9.33574 10.68643,-5.03227 19.53331,-9.20485 19.65977,-9.27241 0.21862,-0.11637 0.22871,0.36862 0.22871,9.341 v 9.46383 l -20.0023,-0.005 c -17.33451,-0.005 -19.95658,-0.0301 -19.65978,-0.19137 z"
       id="path17152" />
  </g>
</svg>
